<?xml version="1.0" encoding="utf-8"?>
<!-- Generator: Adobe Illustrator 22.1.0, SVG Export Plug-In . SVG Version: 6.00 Build 0)  -->
<svg version="1.1"
	 id="svg" xmlns:cc="http://creativecommons.org/ns#" xmlns:dc="http://purl.org/dc/elements/1.1/" xmlns:inkscape="http://www.inkscape.org/namespaces/inkscape" xmlns:rdf="http://www.w3.org/1999/02/22-rdf-syntax-ns#" xmlns:svg="http://www.w3.org/2000/svg"
	 xmlns="http://www.w3.org/2000/svg" xmlns:xlink="http://www.w3.org/1999/xlink" x="0px" y="0px" viewBox="0 0 20 20"
	 style="enable-background:new 0 0 20 20;" xml:space="preserve">
<style type="text/css">
	.st0{fill:#8A4182;}
</style>
<path id="path36" inkscape:connector-curvature="0" class="st0" d="M9.2,8.3h1.5l0.4-0.5V3.6H8.8v4.2L9.2,8.3"/>
<path id="path38" inkscape:connector-curvature="0" class="st0" d="M8.2,10.1l0.5-1.5L8.3,8.1L4.4,6.8L3.7,9.1l3.9,1.3L8.2,10.1"/>
<path id="path40" inkscape:connector-curvature="0" class="st0" d="M9.7,11.7l-1.3-0.9l-0.6,0.2l-2.4,3.4l1.9,1.4l2.4-3.4V11.7"/>
<path id="path42" inkscape:connector-curvature="0" class="st0" d="M11.6,10.7l-1.3,0.9l0,0.7l2.4,3.4l1.9-1.4l-2.4-3.4L11.6,10.7"
	/>
<path id="path44" inkscape:connector-curvature="0" class="st0" d="M11.3,8.7l0.5,1.5l0.6,0.2l3.9-1.3l-0.7-2.2l-3.9,1.3L11.3,8.7"
	/>
<path id="path46" inkscape:connector-curvature="0" class="st0" d="M10,0C4.5,0,0,4.5,0,10c0,5.5,4.5,10,10,10c5.5,0,10-4.5,10-10
	C20,4.5,15.5,0,10,0C10,0,10,0,10,0z M10,2c4.4,0,8,3.6,8,8c0,4.4-3.6,8-8,8c-4.4,0-8-3.6-8-8C2,5.6,5.6,2,10,2"/>
<path id="path48" inkscape:connector-curvature="0" class="st0" d="M16.1,12.2l-3-1l0.2-0.6l3,1L16.1,12.2"/>
<path id="path50" inkscape:connector-curvature="0" class="st0" d="M12.2,7.4L11.7,7l1.9-2.6l0.5,0.4L12.2,7.4"/>
<path id="path52" inkscape:connector-curvature="0" class="st0" d="M7.8,7.4L5.9,4.8l0.5-0.4L8.3,7L7.8,7.4"/>
<path id="path54" inkscape:connector-curvature="0" class="st0" d="M3.9,12.2l-0.2-0.6l3-1l0.2,0.6L3.9,12.2"/>
<path id="path56" inkscape:connector-curvature="0" class="st0" d="M9.7,16.4h0.6v-3.2H9.7C9.7,13.2,9.7,16.4,9.7,16.4z"/>
</svg>
